Simulation
nRows=19
nColumns=15
endheader
time  TH_x TH_y TH_z SC_y  SC_z  SC_x  AC_y  AC_z  AC_x  GH_y  GH_z  GH_yy  EL_x  PS_y
1.4749999999999996  0.000000  0.000000  0.000000  -38.98070919920896  6.019404441755113  33.6883984596999  55.545399144298365  13.889476542846278  6.547757767525383  -18.78149700188124  33.15419906943414  -2.7169020991894928  23.613867986516475  120.000000
1.5044999999999995  0.000000  0.000000  0.000000  -39.084870599499595  5.968190792566076  34.240975639393795  55.72930350117164  13.581995938380459  6.494301895315298  -19.15004143760239  33.22024266844541  -2.3556125312220213  23.675902711571606  120.000000
1.5339999999999996  0.000000  0.000000  0.000000  -39.097887919457825  5.920333414533932  34.62709044199212  55.843782292443784  13.324859799070728  6.3602882265446965  -19.321362875393  33.165153676769265  -2.0481395028336684  23.69645643903015  120.000000
1.5634999999999994  0.000000  0.000000  0.000000  -39.01261616955551  5.881219036029631  34.861182861840526  55.88694997171406  13.095447370742214  6.120372722378963  -19.2875636860339  32.98250820927137  -1.799963570574738  23.680467038306205  120.000000
1.5929999999999995  0.000000  0.000000  0.000000  -38.832005107135174  5.855613156774092  34.96995650681512  55.85972797405584  12.866039413338951  5.7530031351368605  -19.0431234305319  32.66479167161487  -1.6268028534451011  23.6322900909268  120.000000
1.6224999999999996  0.000000  0.000000  0.000000  -38.56969127006125  5.841514346121296  35.000000570463385  55.76259118626098  12.608928937200643  5.241883205063264  -18.5869303535612  32.19932196608915  -1.5548450440577488  23.553679712951794  120.000000
1.6519999999999995  0.000000  0.000000  0.000000  -38.24268273072847  5.833305019451742  34.97943272771226  55.59628585506219  12.315135943499516  4.583482545173898  -17.917734975767978  31.574437333478812  -1.6184433605033315  23.447327915168266  120.000000
1.6814999999999996  0.000000  0.000000  0.000000  -37.86457538428882  5.829861455944887  34.87631847862687  55.36739073791476  12.006272847080734  3.7947653817602705  -17.028443137977774  30.791615464052583  -1.8555195561088682  23.321516811410458  120.000000
1.7109999999999994  0.000000  0.000000  0.000000  -37.45044552003158  5.829458215992649  34.63844126744309  55.09242546138785  11.71219950138787  2.9076686530723084  -15.911933289254442  29.86240212515107  -2.3005449832720926  23.185037429097683  120.000000
1.7404999999999995  0.000000  0.000000  0.000000  -37.02356337203065  5.829876549998744  34.226681165081175  54.80358159199314  11.449744058068397  1.9637370728834571  -14.567360004557763  28.8097819201507  -2.977194325906209  23.042302741639208  120.000000
1.7699999999999996  0.000000  0.000000  0.000000  -36.61285269651987  5.83286564987337  33.60819742468373  54.54802318003177  11.215477692375348  1.0123022442401566  -13.0015228707072  27.67630072027135  -3.8917623749458907  22.893630005288713  120.000000
1.7994999999999994  0.000000  0.000000  0.000000  -36.244828543698766  5.839157016087876  32.75430227258702  54.372978563210786  10.985821346954996  0.10795463604760905  -11.230132617951815  26.521280491035636  -5.027211561633811  22.735564717508282  120.000000
1.8289999999999995  0.000000  0.000000  0.000000  -35.93399267918782  5.8431999555338745  31.641682553923022  54.30691236021159  10.728511884826974  -0.6927964657057902  -9.278808757378016  25.412373841354277  -6.340381261307267  22.561485342742312  120.000000
1.8584999999999994  0.000000  0.000000  0.000000  -35.678660543420925  5.83362883815724  30.25665185689753  54.34726921492593  10.415699882306425  -1.337987765673698  -7.183165658875571  24.415176472313522  -7.763041385380626  22.36273684683443  120.000000
1.8879999999999995  0.000000  0.000000  0.000000  -35.462357989001895  5.797533555215263  28.599543540586442  54.458642289656304  10.033983171856065  -1.7875877597288135  -4.988243584257373  23.582358884788576  -9.208019470160806  22.129929015114662  120.000000
1.9174999999999995  0.000000  0.000000  0.000000  -35.25869497521476  5.726897172589175  26.68832600759633  54.58220800732651  9.589840321545003  -2.0198504852154584  -2.745353259139255  22.94302667436257  -10.579098943005743  21.85520797364386  120.000000
1.9469999999999994  0.000000  0.000000  0.000000  -35.03623019545771  5.621824728727186  24.561223266701464  54.651323831289126  9.109521265397342  -2.034470606693834  -0.5071583551224891  22.49516773873189  -11.783787315271642  21.534736948555338  120.000000
1.9764999999999995  0.000000  0.000000  0.000000  -34.76398516887032  5.4908895854479285  22.274301487410746  54.60966604267886  8.631292775114888  -1.852841986347105  1.6782708169539442  22.204119576692243  -12.746455799350937  21.17077561067315  120.000000
2.0059999999999993  0.000000  0.000000  0.000000  -34.417901324540985  5.346554807229546  19.895486060142378  54.424682694748626  8.19305049545288  -1.5145117796154421  3.7720834213645924  22.008446078221844  -13.419487107324157  20.77276439153847  120.000000
